# WaveFront *.obj file (generated by Cinema 4D)

mtllib ./0.mtl

v -2.000000 0.000000 2.000000
v 2.000000 0.000000 2.000000
v -2.000000 0.000000 -2.000000
v 2.000000 0.000000 -2.000000
# 4 vertices

vn 0.000000 1.000000 0.000000
# 1 normal

vt 0.000000 0.000000 0.000000
vt 0.000000 1.000000 0.000000
vt 1.000000 1.000000 0.000000
vt 1.000000 0.000000 0.000000
# 4 texture coordinates

g Plane
usemtl default
f 2/4/1 4/3/1 3/2/1 1/1/1

v -1.000000 -1.000000 1.000000
v -1.000000 1.000000 1.000000
v 1.000000 -1.000000 1.000000
v 1.000000 1.000000 1.000000
v 1.000000 -1.000000 -1.000000
v 1.000000 1.000000 -1.000000
v -1.000000 -1.000000 -1.000000
v -1.000000 1.000000 -1.000000
# 8 vertices

vn 0.000000 0.000000 1.000000
vn 1.000000 0.000000 0.000000
vn 0.000000 0.000000 -1.000000
vn -1.000000 0.000000 0.000000
vn 0.000000 -1.000000 0.000000
# 5 normals

# 0 texture coordinate

g Cube
usemtl default
f 7/4/2 8/3/2 6/2/2 5/1/2
f 9/4/3 10/3/3 8/2/3 7/1/3
f 11/4/4 12/3/4 10/2/4 9/1/4
f 5/4/5 6/3/5 12/2/5 11/1/5
f 8/4/1 10/3/1 12/2/1 6/1/1
f 9/4/6 7/3/6 5/2/6 11/1/6

