# WaveFront *.obj file (generated by Cinema 4D)

mtllib ./plane_with_cube.mtl

v -1.000000 0.000000 1.000000
v -1.000000 2.000000 1.000000
v 1.000000 0.000000 1.000000
v 1.000000 2.000000 1.000000
v 1.000000 0.000000 -1.000000
v 1.000000 2.000000 -1.000000
v -1.000000 0.000000 -1.000000
v -1.000000 2.000000 -1.000000
# 8 vertices

vn 0.000000 0.000000 1.000000
vn 1.000000 0.000000 0.000000
vn 0.000000 0.000000 -1.000000
vn -1.000000 0.000000 0.000000
vn 0.000000 1.000000 0.000000
vn 0.000000 -1.000000 0.000000
# 6 normals

vt 0.000000 0.000000 0.000000
vt 0.000000 1.000000 0.000000
vt 1.000000 1.000000 0.000000
vt 1.000000 0.000000 0.000000
# 4 texture coordinates

o Cube
usemtl box_1
f 3/4/1 4/3/1 2/2/1 1/1/1
f 5/4/2 6/3/2 4/2/2 3/1/2
f 7/4/3 8/3/3 6/2/3 5/1/3
f 1/4/4 2/3/4 8/2/4 7/1/4
f 4/4/5 6/3/5 8/2/5 2/1/5
f 5/4/6 3/3/6 1/2/6 7/1/6

v -5.000000 0.000000 5.000000
v -4.000000 0.000000 5.000000
v -3.000000 0.000000 5.000000
v -2.000000 0.000000 5.000000
v -1.000000 0.000000 5.000000
v 0.000000 0.000000 5.000000
v 1.000000 0.000000 5.000000
v 2.000000 0.000000 5.000000
v 3.000000 0.000000 5.000000
v 4.000000 0.000000 5.000000
v 5.000000 0.000000 5.000000
v -5.000000 0.000000 4.000000
v -4.000000 0.000000 4.000000
v -3.000000 0.000000 4.000000
v -2.000000 0.000000 4.000000
v -1.000000 0.000000 4.000000
v 0.000000 0.000000 4.000000
v 1.000000 0.000000 4.000000
v 2.000000 0.000000 4.000000
v 3.000000 0.000000 4.000000
v 4.000000 0.000000 4.000000
v 5.000000 0.000000 4.000000
v -5.000000 0.000000 3.000000
v -4.000000 0.000000 3.000000
v -3.000000 0.000000 3.000000
v -2.000000 0.000000 3.000000
v -1.000000 0.000000 3.000000
v 0.000000 0.000000 3.000000
v 1.000000 0.000000 3.000000
v 2.000000 0.000000 3.000000
v 3.000000 0.000000 3.000000
v 4.000000 0.000000 3.000000
v 5.000000 0.000000 3.000000
v -5.000000 0.000000 2.000000
v -4.000000 0.000000 2.000000
v -3.000000 0.000000 2.000000
v -2.000000 0.000000 2.000000
v -1.000000 0.000000 2.000000
v 0.000000 0.000000 2.000000
v 1.000000 0.000000 2.000000
v 2.000000 0.000000 2.000000
v 3.000000 0.000000 2.000000
v 4.000000 0.000000 2.000000
v 5.000000 0.000000 2.000000
v -5.000000 0.000000 1.000000
v -4.000000 0.000000 1.000000
v -3.000000 0.000000 1.000000
v -2.000000 0.000000 1.000000
v -1.000000 0.000000 1.000000
v 0.000000 0.000000 1.000000
v 1.000000 0.000000 1.000000
v 2.000000 0.000000 1.000000
v 3.000000 0.000000 1.000000
v 4.000000 0.000000 1.000000
v 5.000000 0.000000 1.000000
v -5.000000 0.000000 -0.000000
v -4.000000 0.000000 -0.000000
v -3.000000 0.000000 -0.000000
v -2.000000 0.000000 -0.000000
v -1.000000 0.000000 -0.000000
v 0.000000 0.000000 -0.000000
v 1.000000 0.000000 -0.000000
v 2.000000 0.000000 -0.000000
v 3.000000 0.000000 -0.000000
v 4.000000 0.000000 -0.000000
v 5.000000 0.000000 -0.000000
v -5.000000 0.000000 -1.000000
v -4.000000 0.000000 -1.000000
v -3.000000 0.000000 -1.000000
v -2.000000 0.000000 -1.000000
v -1.000000 0.000000 -1.000000
v 0.000000 0.000000 -1.000000
v 1.000000 0.000000 -1.000000
v 2.000000 0.000000 -1.000000
v 3.000000 0.000000 -1.000000
v 4.000000 0.000000 -1.000000
v 5.000000 0.000000 -1.000000
v -5.000000 0.000000 -2.000000
v -4.000000 0.000000 -2.000000
v -3.000000 0.000000 -2.000000
v -2.000000 0.000000 -2.000000
v -1.000000 0.000000 -2.000000
v 0.000000 0.000000 -2.000000
v 1.000000 0.000000 -2.000000
v 2.000000 0.000000 -2.000000
v 3.000000 0.000000 -2.000000
v 4.000000 0.000000 -2.000000
v 5.000000 0.000000 -2.000000
v -5.000000 0.000000 -3.000000
v -4.000000 0.000000 -3.000000
v -3.000000 0.000000 -3.000000
v -2.000000 0.000000 -3.000000
v -1.000000 0.000000 -3.000000
v 0.000000 0.000000 -3.000000
v 1.000000 0.000000 -3.000000
v 2.000000 0.000000 -3.000000
v 3.000000 0.000000 -3.000000
v 4.000000 0.000000 -3.000000
v 5.000000 0.000000 -3.000000
v -5.000000 0.000000 -4.000000
v -4.000000 0.000000 -4.000000
v -3.000000 0.000000 -4.000000
v -2.000000 0.000000 -4.000000
v -1.000000 0.000000 -4.000000
v 0.000000 0.000000 -4.000000
v 1.000000 0.000000 -4.000000
v 2.000000 0.000000 -4.000000
v 3.000000 0.000000 -4.000000
v 4.000000 0.000000 -4.000000
v 5.000000 0.000000 -4.000000
v -5.000000 0.000000 -5.000000
v -4.000000 0.000000 -5.000000
v -3.000000 0.000000 -5.000000
v -2.000000 0.000000 -5.000000
v -1.000000 0.000000 -5.000000
v 0.000000 0.000000 -5.000000
v 1.000000 0.000000 -5.000000
v 2.000000 0.000000 -5.000000
v 3.000000 0.000000 -5.000000
v 4.000000 0.000000 -5.000000
v 5.000000 0.000000 -5.000000
# 121 vertices

# 0 normal

vt 0.000000 0.100000 0.000000
vt 0.100000 0.100000 0.000000
vt 0.100000 0.000000 0.000000
vt 0.200000 0.100000 0.000000
vt 0.200000 0.000000 0.000000
vt 0.300000 0.100000 0.000000
vt 0.300000 0.000000 0.000000
vt 0.400000 0.100000 0.000000
vt 0.400000 0.000000 0.000000
vt 0.500000 0.100000 0.000000
vt 0.500000 0.000000 0.000000
vt 0.600000 0.100000 0.000000
vt 0.600000 0.000000 0.000000
vt 0.700000 0.100000 0.000000
vt 0.700000 0.000000 0.000000
vt 0.800000 0.100000 0.000000
vt 0.800000 0.000000 0.000000
vt 0.900000 0.100000 0.000000
vt 0.900000 0.000000 0.000000
vt 1.000000 0.100000 0.000000
vt 0.000000 0.200000 0.000000
vt 0.100000 0.200000 0.000000
vt 0.200000 0.200000 0.000000
vt 0.300000 0.200000 0.000000
vt 0.400000 0.200000 0.000000
vt 0.500000 0.200000 0.000000
vt 0.600000 0.200000 0.000000
vt 0.700000 0.200000 0.000000
vt 0.800000 0.200000 0.000000
vt 0.900000 0.200000 0.000000
vt 1.000000 0.200000 0.000000
vt 0.000000 0.300000 0.000000
vt 0.100000 0.300000 0.000000
vt 0.200000 0.300000 0.000000
vt 0.300000 0.300000 0.000000
vt 0.400000 0.300000 0.000000
vt 0.500000 0.300000 0.000000
vt 0.600000 0.300000 0.000000
vt 0.700000 0.300000 0.000000
vt 0.800000 0.300000 0.000000
vt 0.900000 0.300000 0.000000
vt 1.000000 0.300000 0.000000
vt 0.000000 0.400000 0.000000
vt 0.100000 0.400000 0.000000
vt 0.200000 0.400000 0.000000
vt 0.300000 0.400000 0.000000
vt 0.400000 0.400000 0.000000
vt 0.500000 0.400000 0.000000
vt 0.600000 0.400000 0.000000
vt 0.700000 0.400000 0.000000
vt 0.800000 0.400000 0.000000
vt 0.900000 0.400000 0.000000
vt 1.000000 0.400000 0.000000
vt 0.000000 0.500000 0.000000
vt 0.100000 0.500000 0.000000
vt 0.200000 0.500000 0.000000
vt 0.300000 0.500000 0.000000
vt 0.400000 0.500000 0.000000
vt 0.500000 0.500000 0.000000
vt 0.600000 0.500000 0.000000
vt 0.700000 0.500000 0.000000
vt 0.800000 0.500000 0.000000
vt 0.900000 0.500000 0.000000
vt 1.000000 0.500000 0.000000
vt 0.000000 0.600000 0.000000
vt 0.100000 0.600000 0.000000
vt 0.200000 0.600000 0.000000
vt 0.300000 0.600000 0.000000
vt 0.400000 0.600000 0.000000
vt 0.500000 0.600000 0.000000
vt 0.600000 0.600000 0.000000
vt 0.700000 0.600000 0.000000
vt 0.800000 0.600000 0.000000
vt 0.900000 0.600000 0.000000
vt 1.000000 0.600000 0.000000
vt 0.000000 0.700000 0.000000
vt 0.100000 0.700000 0.000000
vt 0.200000 0.700000 0.000000
vt 0.300000 0.700000 0.000000
vt 0.400000 0.700000 0.000000
vt 0.500000 0.700000 0.000000
vt 0.600000 0.700000 0.000000
vt 0.700000 0.700000 0.000000
vt 0.800000 0.700000 0.000000
vt 0.900000 0.700000 0.000000
vt 1.000000 0.700000 0.000000
vt 0.000000 0.800000 0.000000
vt 0.100000 0.800000 0.000000
vt 0.200000 0.800000 0.000000
vt 0.300000 0.800000 0.000000
vt 0.400000 0.800000 0.000000
vt 0.500000 0.800000 0.000000
vt 0.600000 0.800000 0.000000
vt 0.700000 0.800000 0.000000
vt 0.800000 0.800000 0.000000
vt 0.900000 0.800000 0.000000
vt 1.000000 0.800000 0.000000
vt 0.000000 0.900000 0.000000
vt 0.100000 0.900000 0.000000
vt 0.200000 0.900000 0.000000
vt 0.300000 0.900000 0.000000
vt 0.400000 0.900000 0.000000
vt 0.500000 0.900000 0.000000
vt 0.600000 0.900000 0.000000
vt 0.700000 0.900000 0.000000
vt 0.800000 0.900000 0.000000
vt 0.900000 0.900000 0.000000
vt 1.000000 0.900000 0.000000
vt 0.100000 1.000000 0.000000
vt 0.200000 1.000000 0.000000
vt 0.300000 1.000000 0.000000
vt 0.400000 1.000000 0.000000
vt 0.500000 1.000000 0.000000
vt 0.600000 1.000000 0.000000
vt 0.700000 1.000000 0.000000
vt 0.800000 1.000000 0.000000
vt 0.900000 1.000000 0.000000
# 117 texture coordinates

o Plane
usemtl floor_1
f 10/7/5 21/6/5 20/5/5 9/1/5
f 11/9/5 22/8/5 21/6/5 10/7/5
f 12/11/5 23/10/5 22/8/5 11/9/5
f 13/13/5 24/12/5 23/10/5 12/11/5
f 14/15/5 25/14/5 24/12/5 13/13/5
f 15/17/5 26/16/5 25/14/5 14/15/5
f 16/19/5 27/18/5 26/16/5 15/17/5
f 17/21/5 28/20/5 27/18/5 16/19/5
f 18/23/5 29/22/5 28/20/5 17/21/5
f 19/4/5 30/24/5 29/22/5 18/23/5
f 21/6/5 32/26/5 31/25/5 20/5/5
f 22/8/5 33/27/5 32/26/5 21/6/5
f 23/10/5 34/28/5 33/27/5 22/8/5
f 24/12/5 35/29/5 34/28/5 23/10/5
f 25/14/5 36/30/5 35/29/5 24/12/5
f 26/16/5 37/31/5 36/30/5 25/14/5
f 27/18/5 38/32/5 37/31/5 26/16/5
f 28/20/5 39/33/5 38/32/5 27/18/5
f 29/22/5 40/34/5 39/33/5 28/20/5
f 30/24/5 41/35/5 40/34/5 29/22/5
f 32/26/5 43/37/5 42/36/5 31/25/5
f 33/27/5 44/38/5 43/37/5 32/26/5
f 34/28/5 45/39/5 44/38/5 33/27/5
f 35/29/5 46/40/5 45/39/5 34/28/5
f 36/30/5 47/41/5 46/40/5 35/29/5
f 37/31/5 48/42/5 47/41/5 36/30/5
f 38/32/5 49/43/5 48/42/5 37/31/5
f 39/33/5 50/44/5 49/43/5 38/32/5
f 40/34/5 51/45/5 50/44/5 39/33/5
f 41/35/5 52/46/5 51/45/5 40/34/5
f 43/37/5 54/48/5 53/47/5 42/36/5
f 44/38/5 55/49/5 54/48/5 43/37/5
f 45/39/5 56/50/5 55/49/5 44/38/5
f 46/40/5 57/51/5 56/50/5 45/39/5
f 47/41/5 58/52/5 57/51/5 46/40/5
f 48/42/5 59/53/5 58/52/5 47/41/5
f 49/43/5 60/54/5 59/53/5 48/42/5
f 50/44/5 61/55/5 60/54/5 49/43/5
f 51/45/5 62/56/5 61/55/5 50/44/5
f 52/46/5 63/57/5 62/56/5 51/45/5
f 54/48/5 65/59/5 64/58/5 53/47/5
f 55/49/5 66/60/5 65/59/5 54/48/5
f 56/50/5 67/61/5 66/60/5 55/49/5
f 57/51/5 68/62/5 67/61/5 56/50/5
f 58/52/5 69/63/5 68/62/5 57/51/5
f 59/53/5 70/64/5 69/63/5 58/52/5
f 60/54/5 71/65/5 70/64/5 59/53/5
f 61/55/5 72/66/5 71/65/5 60/54/5
f 62/56/5 73/67/5 72/66/5 61/55/5
f 63/57/5 74/68/5 73/67/5 62/56/5
f 65/59/5 76/70/5 75/69/5 64/58/5
f 66/60/5 77/71/5 76/70/5 65/59/5
f 67/61/5 78/72/5 77/71/5 66/60/5
f 68/62/5 79/73/5 78/72/5 67/61/5
f 69/63/5 80/74/5 79/73/5 68/62/5
f 70/64/5 81/75/5 80/74/5 69/63/5
f 71/65/5 82/76/5 81/75/5 70/64/5
f 72/66/5 83/77/5 82/76/5 71/65/5
f 73/67/5 84/78/5 83/77/5 72/66/5
f 74/68/5 85/79/5 84/78/5 73/67/5
f 76/70/5 87/81/5 86/80/5 75/69/5
f 77/71/5 88/82/5 87/81/5 76/70/5
f 78/72/5 89/83/5 88/82/5 77/71/5
f 79/73/5 90/84/5 89/83/5 78/72/5
f 80/74/5 91/85/5 90/84/5 79/73/5
f 81/75/5 92/86/5 91/85/5 80/74/5
f 82/76/5 93/87/5 92/86/5 81/75/5
f 83/77/5 94/88/5 93/87/5 82/76/5
f 84/78/5 95/89/5 94/88/5 83/77/5
f 85/79/5 96/90/5 95/89/5 84/78/5
f 87/81/5 98/92/5 97/91/5 86/80/5
f 88/82/5 99/93/5 98/92/5 87/81/5
f 89/83/5 100/94/5 99/93/5 88/82/5
f 90/84/5 101/95/5 100/94/5 89/83/5
f 91/85/5 102/96/5 101/95/5 90/84/5
f 92/86/5 103/97/5 102/96/5 91/85/5
f 93/87/5 104/98/5 103/97/5 92/86/5
f 94/88/5 105/99/5 104/98/5 93/87/5
f 95/89/5 106/100/5 105/99/5 94/88/5
f 96/90/5 107/101/5 106/100/5 95/89/5
f 98/92/5 109/103/5 108/102/5 97/91/5
f 99/93/5 110/104/5 109/103/5 98/92/5
f 100/94/5 111/105/5 110/104/5 99/93/5
f 101/95/5 112/106/5 111/105/5 100/94/5
f 102/96/5 113/107/5 112/106/5 101/95/5
f 103/97/5 114/108/5 113/107/5 102/96/5
f 104/98/5 115/109/5 114/108/5 103/97/5
f 105/99/5 116/110/5 115/109/5 104/98/5
f 106/100/5 117/111/5 116/110/5 105/99/5
f 107/101/5 118/112/5 117/111/5 106/100/5
f 109/103/5 120/113/5 119/2/5 108/102/5
f 110/104/5 121/114/5 120/113/5 109/103/5
f 111/105/5 122/115/5 121/114/5 110/104/5
f 112/106/5 123/116/5 122/115/5 111/105/5
f 113/107/5 124/117/5 123/116/5 112/106/5
f 114/108/5 125/118/5 124/117/5 113/107/5
f 115/109/5 126/119/5 125/118/5 114/108/5
f 116/110/5 127/120/5 126/119/5 115/109/5
f 117/111/5 128/121/5 127/120/5 116/110/5
f 118/112/5 129/3/5 128/121/5 117/111/5

